<?xml version="1.0" encoding="UTF-8"?>
<!DOCTYPE svg PUBLIC "-//W3C//DTD SVG 1.1//EN" "http://www.w3.org/Graphics/SVG/1.1/DTD/svg11.dtd">
<!-- Creator: CorelDRAW -->
<svg xmlns="http://www.w3.org/2000/svg" xml:space="preserve" width="8.2298mm" height="8.2mm" version="1.1" style="shape-rendering:geometricPrecision; text-rendering:geometricPrecision; image-rendering:optimizeQuality; fill-rule:evenodd; clip-rule:evenodd"
viewBox="0 0 822.98 820"
 xmlns:xlink="http://www.w3.org/1999/xlink"
 xmlns:xodm="http://www.corel.com/coreldraw/odm/2003">
 <defs>
  <style type="text/css">
   <![CDATA[
    .str3 {stroke:#2B2A29;stroke-width:20;stroke-miterlimit:22.9256}
    .str2 {stroke:#FFED00;stroke-width:20;stroke-miterlimit:22.9256}
    .str0 {stroke:#E5097F;stroke-width:20;stroke-miterlimit:22.9256}
    .str1 {stroke:#009846;stroke-width:20;stroke-miterlimit:22.9256}
    .fil3 {fill:none}
    .fil2 {fill:#FFED00}
    .fil0 {fill:#E5097F}
    .fil1 {fill:#009846}
   ]]>
  </style>
 </defs>
 <g id="Слой_x0020_1">
  <metadata id="CorelCorpID_0Corel-Layer"/>
  <circle class="fil0 str0" transform="matrix(0.60748 0.60748 -0.60748 0.60748 401.8 414.87)" r="465.6"/>
  <path class="fil1 str1" d="M684.64 132.03c2.15,2.15 4.28,4.33 6.37,6.52 -2.1,-2.19 -4.22,-4.37 -6.37,-6.52zm20.96 22.61c2.08,2.42 4.12,4.86 6.13,7.33 -2.01,-2.46 -4.05,-4.91 -6.13,-7.33zm30.94 41.14c1.5,2.28 2.97,4.58 4.41,6.88 -1.45,-2.3 -2.91,-4.6 -4.41,-6.88zm4.86 7.58c3.27,5.24 6.41,10.55 9.41,15.9 -3,-5.35 -6.14,-10.66 -9.41,-15.9zm15.03 26.28c1.36,2.6 2.7,5.2 3.99,7.82 -1.29,-2.62 -2.63,-5.22 -3.99,-7.82zm4.12 8.08c1.27,2.57 2.5,5.16 3.72,7.76 -1.22,-2.6 -2.45,-5.19 -3.72,-7.76zm12.15 27.12c1.1,2.73 2.18,5.48 3.22,8.23 -1.04,-2.75 -2.12,-5.5 -3.22,-8.23zm9.88 27.29c0.94,2.93 1.86,5.86 2.73,8.81 -0.87,-2.94 -1.79,-5.88 -2.73,-8.81zm2.79 9.01c0.81,2.74 1.58,5.5 2.33,8.26 -0.75,-2.76 -1.52,-5.52 -2.33,-8.26zm7.23 28.24c0.56,2.56 1.08,5.12 1.59,7.69 -0.51,-2.57 -1.03,-5.13 -1.59,-7.69zm8.23 57.57c0.19,2.69 0.33,5.39 0.47,8.08 -0.13,-2.7 -0.28,-5.39 -0.47,-8.08zm0.8 38.8c-0.06,2.29 -0.13,4.58 -0.24,6.87l0.24 -6.87zm-11.43 84.96c-0.67,2.74 -1.38,5.48 -2.11,8.21 0.73,-2.73 1.44,-5.47 2.11,-8.21zm-755.36 -255.29c19.45,-44.8 47.49,-86.76 84.12,-123.39 156.2,-156.21 409.48,-156.21 565.68,0l-282.84 282.84 -366.96 -159.45z"/>
  <path class="fil1 str1" d="M768.76 574.31c-19.45,44.8 -47.49,86.77 -84.12,123.4 -156.2,156.21 -409.48,156.21 -565.68,0l282.84 -282.84 366.96 159.44z"/>
  <path class="fil2 str2" d="M684.64 132.03c156.21,156.2 156.21,409.48 0,565.68 -156.2,156.21 -409.48,156.21 -565.68,0l565.68 -565.68z"/>
  <rect class="fil3 str3" transform="matrix(0.119396 -0.257252 0.27479 0.111776 144.67 626.335)" width="1802.34" height="1606.44"/>
 </g>
</svg>
